<?xml version="1.0" encoding="utf-8"?>
<!-- Generator: Adobe Illustrator 26.5.0, SVG Export Plug-In . SVG Version: 6.00 Build 0)  -->
<svg version="1.1" id="Layer_1" xmlns="http://www.w3.org/2000/svg" xmlns:xlink="http://www.w3.org/1999/xlink" x="0px" y="0px"
	 viewBox="0 0 450 70" style="enable-background:new 0 0 450 70;" xml:space="preserve">
<style type="text/css">
	.st0{fill:#231F20;}
</style>
<path class="st0 cls-1" stroke="#FFFFFF" stroke-width="2" d="M68,6.2v9.6H48.8v48h-9.7V6.2L68,6.2L68,6.2z"/>
<path class="st0 cls-1" stroke="#FFFFFF" stroke-width="2" d="M106.6,6.2v9.6H77.8l-9.6-9.7C68.2,6.2,106.6,6.2,106.6,6.2z M77.8,30.2h28.8v9.6H68.2v-9.6H77.8z M77.8,54.2
	h28.8v9.6H68.2V63L77.8,54.2z"/>
<path class="st0 cls-1" stroke="#FFFFFF" stroke-width="2" d="M122.5,55.3c-2.6-2.7-4.7-5.7-6.2-9.2S114,38.9,114,35s0.8-7.7,2.3-11.2c1.5-3.5,3.6-6.5,6.2-9.1
	c2.7-2.7,5.7-4.7,9.2-6.2c3.5-1.5,7.2-2.3,11.2-2.3s7.7,0.7,11.2,2.2s6.6,3.6,9.2,6.3l-6.8,6.7c-3.8-3.7-8.4-5.5-13.5-5.5
	c-2.7,0-5.2,0.5-7.5,1.4c-2.4,1-4.4,2.4-6.1,4.2c-1.7,1.7-3.1,3.7-4.1,6.1c-1,2.4-1.5,4.8-1.5,7.5s0.5,5.1,1.5,7.5
	c1,2.3,2.4,4.3,4.2,6.1c1.7,1.8,3.7,3.2,6.1,4.2c2.4,0.9,4.8,1.4,7.5,1.4l11.2,7.4c-3.5,1.5-7.2,2.2-11.2,2.2s-7.7-0.8-11.2-2.3
	C128.2,60,125.2,57.9,122.5,55.3L122.5,55.3z"/>
<path class="st0 cls-1" stroke="#FFFFFF" stroke-width="2" d="M203,6.2v57.6h-9.6v-24h-28.8v24h-9.6v-24l9.6-9.6h28.8v-24L203,6.2L203,6.2z"/>
<path class="st0 cls-1" stroke="#FFFFFF" stroke-width="2" d="M230.8,39.8c-4.7,0-8.6-1.7-11.9-4.9c-3.2-3.3-4.9-7.3-4.9-11.9s1.7-8.5,4.9-11.8c3.2-3.3,7.2-5,11.9-5v9.6
	c-1,0-1.9,0.1-2.8,0.5c-0.9,0.4-1.7,0.9-2.4,1.6c-0.6,0.6-1.1,1.4-1.5,2.3s-0.5,1.8-0.5,2.7c0,2,0.6,3.7,2,5.1
	c1.4,1.4,3.1,2.2,5.2,2.2h14.3c4.7,0,8.6,1.7,11.9,4.9c3.2,3.2,5,7.3,5,11.9s-1.7,8.6-5,11.9c-3.2,3.2-7.2,4.9-11.9,4.9v-9.6
	c1,0,1.9-0.1,2.8-0.5c0.9-0.4,1.7-0.9,2.4-1.5c0.6-0.6,1.1-1.4,1.5-2.3c0.4-0.9,0.6-1.8,0.6-2.8c0-1.9-0.8-3.6-2.2-5
	c-1.4-1.4-3.1-2.2-5.1-2.2L230.8,39.8L230.8,39.8z"/>
<path class="st0 cls-1" stroke="#FFFFFF" stroke-width="2" d="M300.7,6.2v9.6h-19.1v48h-9.6V6.2L300.7,6.2L300.7,6.2z"/>
<path class="st0 cls-1" stroke="#FFFFFF" stroke-width="2" d="M305.7,54.2l-4.9,9.6h-10.7l28.8-57.6l19.2,38.5h-10.8l-8.4-16.9l-8.5,16.9L305.7,54.2z M347.7,63.8H337
	l-4.8-9.6h10.7L347.7,63.8z"/>
<path class="st0 cls-1" stroke="#FFFFFF" stroke-width="2" d="M346,55.3c-2.6-2.7-4.7-5.7-6.2-9.2s-2.3-7.2-2.3-11.1s0.8-7.7,2.3-11.2c1.5-3.5,3.6-6.5,6.2-9.1
	c2.7-2.7,5.7-4.7,9.2-6.2c3.5-1.5,7.2-2.3,11.2-2.3s7.7,0.7,11.2,2.2c3.5,1.5,6.5,3.6,9.2,6.3l-6.8,6.7c-3.8-3.7-8.4-5.5-13.5-5.5
	c-2.7,0-5.2,0.5-7.5,1.4c-2.4,1-4.4,2.4-6.1,4.2c-1.7,1.7-3.1,3.7-4.1,6.1c-1,2.4-1.5,4.8-1.5,7.5s0.5,5.1,1.5,7.5
	c1,2.3,2.4,4.3,4.2,6.1c1.7,1.8,3.8,3.2,6,4.2c2.4,0.9,4.8,1.4,7.5,1.4l11.2,7.4c-3.5,1.5-7.2,2.2-11.2,2.2s-7.7-0.8-11.2-2.3
	C351.7,60,348.7,57.9,346,55.3L346,55.3z"/>
<path class="st0 cls-1" stroke="#FFFFFF" stroke-width="2" d="M384.7,35l28.8,28.8h-13.5L375,39l-4-4l4-4l24.9-24.8h13.5L384.7,35z M375,31l24.9-24.8L375,31z M399.9,63.8
	L375,39L399.9,63.8z"/>
</svg>
