<?xml version="1.0" encoding="UTF-8"?>
<svg id="tsAni" data-name="Layer 1" xmlns="http://www.w3.org/2000/svg" viewBox="0 0 527.37 290.06">
  <defs>
    <style>
      .cls-1 {
        fill: #231f20;
      }
    </style>
  </defs>
  <path class="cls-1" stroke="#FFFFFF" stroke-width="2" d="M58.28,119.83v9.65h-19.15v47.96h-9.65v-57.6h28.8Z"/>
  <path class="cls-1" stroke="#FFFFFF" stroke-width="2" d="M96.94,119.83v9.65h-28.8l-9.58-9.65h38.38Zm-28.8,24.05h28.8v9.58H58.56v-9.58h9.58Zm0,23.91h28.8v9.65H58.56v-.79l9.58-8.86Z"/>
  <path class="cls-1" stroke="#FFFFFF" stroke-width="2" d="M112.85,168.93c-2.59-2.66-4.68-5.69-6.19-9.22s-2.3-7.2-2.3-11.09,.79-7.71,2.3-11.23c1.51-3.46,3.6-6.48,6.19-9.07,2.66-2.66,5.69-4.68,9.22-6.19,3.46-1.51,7.2-2.3,11.16-2.3s7.7,.72,11.16,2.23c3.46,1.51,6.55,3.6,9.22,6.26l-6.84,6.7c-3.82-3.74-8.35-5.54-13.54-5.54-2.66,0-5.18,.5-7.49,1.44-2.38,1.01-4.39,2.38-6.12,4.18-1.73,1.73-3.1,3.74-4.1,6.05-1.01,2.38-1.51,4.82-1.51,7.49s.5,5.11,1.51,7.49c1.01,2.3,2.38,4.32,4.18,6.05,1.73,1.8,3.74,3.17,6.05,4.18,2.38,.94,4.82,1.44,7.49,1.44l11.16,7.42c-3.46,1.51-7.2,2.23-11.16,2.23s-7.7-.79-11.16-2.3c-3.53-1.51-6.55-3.6-9.22-6.19Z"/>
  <path class="cls-1" stroke="#FFFFFF" stroke-width="2" d="M193.35,119.83v57.6h-9.58v-23.98h-28.8v23.98h-9.58v-23.98l9.58-9.65h28.8v-23.98h9.58Z"/>
  <path class="cls-1" stroke="#FFFFFF" stroke-width="2" d="M221.14,153.45c-4.68,0-8.64-1.66-11.88-4.9-3.24-3.31-4.9-7.27-4.9-11.95s1.66-8.5,4.9-11.81c3.24-3.31,7.2-4.97,11.88-4.97v9.65c-1.01,0-1.94,.14-2.81,.5-.94,.36-1.66,.86-2.38,1.58-.65,.65-1.15,1.44-1.51,2.3-.36,.86-.5,1.8-.5,2.74,0,2.02,.65,3.67,2.02,5.11,1.44,1.44,3.1,2.16,5.18,2.16h14.33c4.68,0,8.64,1.66,11.88,4.9s4.97,7.27,4.97,11.88-1.66,8.57-4.97,11.88c-3.24,3.24-7.2,4.9-11.88,4.9v-9.65c1.01,0,1.94-.14,2.81-.5,.94-.36,1.73-.86,2.38-1.51,.65-.65,1.15-1.37,1.51-2.3,.36-.86,.58-1.8,.58-2.81,0-1.94-.79-3.6-2.16-5.04-1.44-1.44-3.1-2.16-5.11-2.16h-14.33Z"/>
  <path class="cls-1" stroke="#FFFFFF" stroke-width="2" d="M290.98,119.83v9.65h-19.15v47.96h-9.65v-57.6h28.8Z"/>
  <path class="cls-1" stroke="#FFFFFF" stroke-width="2" d="M296.02,167.78l-4.9,9.65h-10.66l28.8-57.6,19.23,38.45h-10.8l-8.42-16.92-8.5,16.92-4.75,9.5Zm42.05,9.65h-10.73l-4.75-9.58h10.66l4.82,9.58Z"/>
  <path class="cls-1" stroke="#FFFFFF" stroke-width="2" d="M336.34,168.93c-2.59-2.66-4.68-5.69-6.19-9.22-1.51-3.53-2.3-7.2-2.3-11.09s.79-7.71,2.3-11.23c1.51-3.46,3.6-6.48,6.19-9.07,2.66-2.66,5.69-4.68,9.22-6.19,3.46-1.51,7.2-2.3,11.16-2.3s7.71,.72,11.16,2.23c3.46,1.51,6.55,3.6,9.22,6.26l-6.84,6.7c-3.82-3.74-8.35-5.54-13.54-5.54-2.66,0-5.18,.5-7.49,1.44-2.38,1.01-4.39,2.38-6.12,4.18-1.73,1.73-3.1,3.74-4.1,6.05-1.01,2.38-1.51,4.82-1.51,7.49s.5,5.11,1.51,7.49c1.01,2.3,2.38,4.32,4.18,6.05,1.73,1.8,3.75,3.17,6.05,4.18,2.38,.94,4.82,1.44,7.49,1.44l11.16,7.42c-3.46,1.51-7.2,2.23-11.16,2.23s-7.7-.79-11.16-2.3c-3.53-1.51-6.55-3.6-9.22-6.19Z"/>
  <path class="cls-1" stroke="#FFFFFF" stroke-width="2" d="M375,148.63l28.8,28.8h-13.54l-24.91-24.77-4.03-3.96,4.03-4.03,24.91-24.84h13.54l-28.8,28.8Zm-9.65-3.96l24.91-24.84-24.91,24.84Zm24.91,32.76l-24.91-24.77,24.91,24.77Z"/>
</svg>